<?xml version="1.0" encoding="UTF-8" standalone="no"?>
<!-- Created with Inkscape (http://www.inkscape.org/) -->

<svg
   xmlns:dc="http://purl.org/dc/elements/1.1/"
   xmlns:cc="http://creativecommons.org/ns#"
   xmlns:rdf="http://www.w3.org/1999/02/22-rdf-syntax-ns#"
   xmlns:svg="http://www.w3.org/2000/svg"
   xmlns="http://www.w3.org/2000/svg"
   xmlns:sodipodi="http://sodipodi.sourceforge.net/DTD/sodipodi-0.dtd"
   xmlns:inkscape="http://www.inkscape.org/namespaces/inkscape"
   width="744.09448819"
   height="1052.3622047"
   id="svg3757"
   version="1.1"
   inkscape:version="0.48.5 r10040"
   sodipodi:docname="EyeClosed.svg">
  <defs
     id="defs3759" />
  <sodipodi:namedview
     id="base"
     pagecolor="#ffffff"
     bordercolor="#666666"
     borderopacity="1.0"
     inkscape:pageopacity="0.0"
     inkscape:pageshadow="2"
     inkscape:zoom="0.35"
     inkscape:cx="325"
     inkscape:cy="520"
     inkscape:document-units="px"
     inkscape:current-layer="layer1"
     showgrid="false"
     inkscape:window-width="780"
     inkscape:window-height="757"
     inkscape:window-x="1844"
     inkscape:window-y="98"
     inkscape:window-maximized="0" />
  <metadata
     id="metadata3762">
    <rdf:RDF>
      <cc:Work
         rdf:about="">
        <dc:format>image/svg+xml</dc:format>
        <dc:type
           rdf:resource="http://purl.org/dc/dcmitype/StillImage" />
        <dc:title />
      </cc:Work>
    </rdf:RDF>
  </metadata>
  <g
     inkscape:label="Layer 1"
     inkscape:groupmode="layer"
     id="layer1">
    <path
       transform="translate(15.714276,-2.8571299)"
       sodipodi:type="arc"
       style="fill:#ffff00;fill-opacity:1"
       id="path2985"
       sodipodi:cx="378.57144"
       sodipodi:cy="403.79074"
       sodipodi:rx="244.28572"
       sodipodi:ry="248.57143"
       d="m 622.85716,403.79074 a 244.28572,248.57143 0 1 1 -488.57144,0 244.28572,248.57143 0 1 1 488.57144,0 z" />
    <path
       style="fill:#000000;fill-opacity:1;stroke:#000000;stroke-width:1px;stroke-linecap:butt;stroke-linejoin:miter;stroke-opacity:1"
       d="M 396.92909,650.93361 C 348.4747,569.62368 324.50473,493.21064 314.07195,419.50504 312.5694,302.7644 363.67312,238.63002 396.92909,156.6479 c 53.48137,76.32174 83.25704,168.9829 82.85715,260 5.88986,50.17115 -46.0655,148.54664 -82.85715,234.28571 z"
       id="path2987"
       inkscape:connector-curvature="0"
       sodipodi:nodetypes="ccccc" />
    <path
       style="fill:none;stroke:#000000;stroke-width:1px;stroke-linecap:butt;stroke-linejoin:miter;stroke-opacity:1"
       d="m 157.14286,406.6479 c 113.5261,50.48307 148.7932,54.01787 240,51.42857 88.89562,8.59161 166.24266,-17.4625 240,-54.28572 l 0,0 -2.85715,0"
       id="path3801"
       inkscape:connector-curvature="0"
       sodipodi:nodetypes="ccccc" />
    <path
       style="fill:#000000;fill-opacity:1"
       d="m 148.60504,401.54776 -2.89076,-32.60347 0,-32.60347 8.67227,-8.89186 5.78152,-17.7837 11.56303,-23.71162 11.56302,-26.67557 20.23529,-20.74766 20.2353,-20.74766 14.45377,-14.81977 17.34455,-8.89186 23.12604,-14.81975 17.34454,-8.89186 17.34454,-8.89186 37.57983,-11.8558 31.79833,-2.96395 26.0168,0 23.12605,0 31.79832,11.8558 23.12605,8.89186 23.12605,11.85581 c 0,0 5.78152,-2.96395 20.23529,11.8558 14.45379,14.81977 14.45379,14.81977 14.45379,14.81977 l 26.0168,17.7837 14.45379,23.71163 26.0168,44.45927 14.45379,38.53138 8.67226,32.60347 2.89076,32.60347 -17.34454,11.85581 -37.57984,14.81975 -49.14285,17.78372 -43.36135,11.8558 -52.03361,11.85581 -37.57983,0 -54.92437,-2.96395 -26.01681,-2.96395 -43.36134,-8.89186 -28.90757,-8.89185 -34.68907,-8.89186 -34.68908,-20.74766 z"
       id="path3805"
       inkscape:connector-curvature="0" />
  </g>
</svg>
