<?xml version="1.0" encoding="UTF-8" standalone="no"?>
<!-- Created with Inkscape (http://www.inkscape.org/) -->

<svg
   xmlns:dc="http://purl.org/dc/elements/1.1/"
   xmlns:cc="http://creativecommons.org/ns#"
   xmlns:rdf="http://www.w3.org/1999/02/22-rdf-syntax-ns#"
   xmlns:svg="http://www.w3.org/2000/svg"
   xmlns="http://www.w3.org/2000/svg"
   xmlns:sodipodi="http://sodipodi.sourceforge.net/DTD/sodipodi-0.dtd"
   xmlns:inkscape="http://www.inkscape.org/namespaces/inkscape"
   width="744.09448819"
   height="1052.3622047"
   id="svg4327"
   version="1.1"
   inkscape:version="0.48.5 r10040"
   sodipodi:docname="New document 8">
  <defs
     id="defs4329" />
  <sodipodi:namedview
     id="base"
     pagecolor="#ffffff"
     bordercolor="#666666"
     borderopacity="1.0"
     inkscape:pageopacity="0.0"
     inkscape:pageshadow="2"
     inkscape:zoom="0.35"
     inkscape:cx="325"
     inkscape:cy="520"
     inkscape:document-units="px"
     inkscape:current-layer="layer1"
     showgrid="false"
     inkscape:window-width="718"
     inkscape:window-height="739"
     inkscape:window-x="1815"
     inkscape:window-y="121"
     inkscape:window-maximized="0" />
  <metadata
     id="metadata4332">
    <rdf:RDF>
      <cc:Work
         rdf:about="">
        <dc:format>image/svg+xml</dc:format>
        <dc:type
           rdf:resource="http://purl.org/dc/dcmitype/StillImage" />
        <dc:title></dc:title>
      </cc:Work>
    </rdf:RDF>
  </metadata>
  <g
     inkscape:label="Layer 1"
     inkscape:groupmode="layer"
     id="layer1">
    <path
       style="fill:#501616;fill-opacity:1"
       d="m 162.85714,1052.3622 20,-80.00002 45.71429,-57.14285 5.71428,-548.57143 245.71429,0 -5.71429,554.28571 L 520,975.21933 525.71429,1046.6479 520,1052.3622 z"
       id="path4335"
       inkscape:connector-curvature="0" />
    <path
       style="fill:#008000;fill-opacity:1"
       d="M 362.85714,543.79075 317.14286,526.6479 254.28571,543.79075 225.71429,500.93361 174.28571,506.6479 140,435.21933 162.85714,383.79075 94.285714,338.07647 125.71429,289.50504 42.857143,212.36218 l 68.571427,-88.57143 40,0 17.14286,-54.28571 68.57143,-31.428572 20,34.285715 45.71428,-54.285715 74.28572,-2.857143 45.71428,5.714286 11.42857,31.428572 77.14286,-14.285715 25.71429,25.714286 -11.42857,25.714286 77.14285,-2.857143 -8.57143,28.571433 22.85715,8.57142 20,45.71429 -48.57143,-11.42857 40,54.28571 -42.85714,31.42857 51.42857,31.42858 -51.42857,60 51.42857,2.85714 -25.71429,77.14286 L 580,389.50504 577.14286,443.79075 620,469.50504 l -65.71429,57.14286 -37.14285,-48.57143 -40,54.28571 -40,-17.14285 -34.28572,14.28571 z"
       id="path4845"
       inkscape:connector-curvature="0" />
  </g>
</svg>
